<?xml version="1.0" standalone="no"?>
<!DOCTYPE svg PUBLIC "-//W3C//DTD SVG 20010904//EN"
 "http://www.w3.org/TR/2001/REC-SVG-20010904/DTD/svg10.dtd">
<svg version="1.0" xmlns="http://www.w3.org/2000/svg"
 width="300.000000pt" height="300.000000pt" viewBox="0 0 300.000000 300.000000"
 preserveAspectRatio="xMidYMid meet">
<metadata>
Created by potrace 1.11, written by Peter Selinger 2001-2013
</metadata>
<g transform="translate(0.000000,300.000000) scale(0.100000,-0.100000)"
fill="#000000" stroke="none">
<path d="M1383 2673 c-50 -6 -55 -28 -27 -109 44 -122 54 -157 54 -181 0 -38
-40 -70 -106 -82 -370 -71 -537 -131 -689 -246 -154 -118 -257 -295 -307 -529
-46 -221 -21 -452 75 -676 84 -195 162 -315 280 -426 188 -179 418 -254 783
-254 215 0 313 24 517 126 309 156 579 413 697 667 93 198 98 434 14 667 -60
168 -148 306 -273 430 -154 152 -233 179 -561 189 -124 4 -232 11 -242 15 -24
11 -28 36 -28 191 -1 77 -4 158 -8 180 l-7 40 -70 1 c-39 1 -85 -1 -102 -3z
m106 -52 c11 -7 17 -43 22 -138 8 -137 14 -176 36 -209 19 -29 94 -60 166 -69
65 -8 107 -36 127 -85 12 -29 14 -30 84 -30 376 -1 682 -350 653 -745 -8 -107
-29 -184 -77 -280 -103 -210 -269 -336 -512 -389 l-27 -6 24 64 c52 137 69
254 70 466 0 211 -16 318 -72 474 -28 78 -92 207 -123 246 l-20 25 0 -27 c0
-16 -4 -28 -9 -28 -6 0 -33 34 -62 75 -29 42 -57 74 -63 72 -7 -2 -11 -35 -12
-83 0 -43 -1 -87 -2 -96 -4 -36 -30 -16 -78 59 -114 178 -141 176 -259 -12
-21 -33 -47 -70 -59 -83 -18 -21 -21 -21 -26 -6 -4 10 -1 58 6 108 27 188 17
218 -61 189 -121 -46 -142 -52 -168 -53 l-28 0 27 50 c42 77 91 130 121 130
27 0 121 14 211 31 30 6 56 17 59 26 3 8 -7 82 -23 164 -24 129 -26 152 -13
160 18 11 70 11 88 0z"/>
</g>
</svg>
